<svg xmlns="http://www.w3.org/2000/svg" fill="none" viewBox="0 0 32 32"><g clip-path="url(#a)"><path fill="url(#b)" d="m26.727 26.76-10.77.73-10.59-.73-.74-10.61.74-10.75 10.55-.73 10.81.73.73 10.68-.73 10.68Z"/><path fill="url(#c)" d="m26.827 5.27-2.9-.21-8.06-.53h-.01l-10.73.74-.74 10.92.74 10.78 10.75.74h.01l10.94-.74.74-10.84-.74-10.87v.01Zm-.07 17.35-.75-.75-.26.26.98.98-.06.86-1.38-1.38-.26.26 1.61 1.61-.05.7-1.91-1.91-.26.26 2.14 2.14-.06.81-2.53-2.53-.26.26 2.47 2.47-.7.05-2.14-2.14-.26.26 1.91 1.91-.82.06-1.54-1.54-.26.26 1.31 1.31-.78.05-.92-.92-.26.26.69.69-6.53.44-6.25-.43.62-.62-.26-.26-.85.85-.78-.05 1.24-1.24-.26-.26-1.46 1.46-.82-.06 1.84-1.84-.26-.26-2.07 2.07-.69-.05 2.4-2.4-.26-.26-2.55 2.55-.06-.8 2.16-2.16-.26-.26-1.93 1.93-.05-.7 1.62-1.62-.26-.26-1.4 1.4-.06-.86 1-1-.26-.26-.77.77-.45-6.53.44-6.49.71.71.26-.26-.94-.94.06-.86 1.34 1.34.26-.26-1.56-1.56.05-.7 1.87 1.87.26-.26-2.1-2.1.05-.8 2.49 2.49.26-.26-2.5-2.5.69-.05 2.17 2.17.26-.26-1.94-1.94.82-.06 1.56 1.56.26-.26-1.34-1.34.78-.05.95.95.26-.26-.72-.72 6.39-.44 6.45.44-.65.65.26.26.88-.88.78.05-1.26 1.26.26.26 1.49-1.49.82.06-1.87 1.87.26.26 2.1-2.1.7.05-2.43 2.43.26.26 2.59-2.59.06.78-2.2 2.22.26.26L26.567 7l.05.7-1.67 1.67.26.26 1.44-1.44.06.86-1.04 1.04.26.26.81-.81.45 6.61-.44 6.5.01-.03Z"/><path fill="url(#d)" d="M15.877 27.75h-.01L5.087 27v-.03l-.75-10.79.74-10.95h.03l10.73-.75h.01l8.06.54 2.93.21.75 10.88-.74 10.88h-.03l-10.95.75.01.01Zm-10.73-.8 10.73.74 10.92-.74.74-10.81-.74-10.84-2.88-.21-8.06-.53h-.01l-10.7.74-.74 10.89.74 10.76Zm10.73.43-6.32-.44.65-.65-.22-.22-.84.84-.86-.06 1.26-1.26-.22-.22-1.45 1.45-.9-.06 1.86-1.86-.22-.22-2.06 2.06-.77-.05 2.42-2.42-.22-.22-2.57 2.57-.06-.88 2.15-2.15-.22-.22-1.95 1.95-.05-.78 1.61-1.61-.22-.22-1.42 1.42-.06-.94.98-.98-.22-.22-.79.79-.45-6.59.45-6.56.73.73.22-.22-.92-.92.06-.94 1.36 1.36.22-.22-1.55-1.55.05-.78 1.89 1.89.22-.22-2.09-2.09.06-.88 2.51 2.51.22-.22-2.52-2.52.77-.05 2.16 2.16.22-.22-1.96-1.96.9-.06 1.54 1.55.22-.22-1.36-1.36.86-.06.94.94.22-.22-.75-.75 6.46-.45 6.51.44-.68.68.22.22.87-.87.86.06-1.29 1.29.22.22 1.48-1.48.9.06-1.89 1.89.22.22 2.09-2.09.77.05-2.46 2.46.22.22 2.62-2.62.06.86-2.19 2.21.22.22 2-2 .05.78-1.65 1.66.22.22 1.47-1.47.06.94-1.03 1.03.22.22.84-.84.46 6.68-.45 6.56-.78-.78-.22.22.97.97-.06.94-1.4-1.4-.22.22 1.6 1.6-.05.78-1.94-1.94-.22.22 2.13 2.13-.06.88-2.56-2.56-.22.22 2.5 2.5-.77.05-2.12-2.13-.22.22 1.94 1.94-.9.06-1.52-1.52-.22.22 1.33 1.33-.86.06-.91-.91-.22.22.72.72-6.59.45-.04-.01Zm-6.18-.49 6.18.43 6.46-.44-.67-.67.3-.3.93.93.7-.05-1.28-1.28.3-.3 1.55 1.55.74-.05-1.89-1.89.3-.3 2.15 2.15.62-.04-2.45-2.45.3-.3 2.51 2.51.05-.73-2.15-2.15.3-.3 1.89 1.89.04-.62-1.62-1.62.3-.3 1.35 1.35.05-.78-.99-.99.3-.3.73.73.44-6.43-.45-6.54-.79.79-.3-.3 1.05-1.05-.05-.78-1.42 1.42-.3-.3 1.68-1.68-.04-.62-1.95 1.95-.3-.3 2.21-2.24-.05-.7-2.57 2.57-.3-.3 2.4-2.4-.62-.04-2.11 2.11-.3-.3 1.84-1.84-.74-.05-1.5 1.5-.3-.3 1.24-1.24-.7-.05-.89.89-.3-.3.63-.63-6.38-.43-6.32.44.7.7-.3.3-.96-.96-.7.05 1.31 1.31-.3.3-1.58-1.58-.74.05 1.91 1.91-.3.3-2.18-2.18-.62.04 2.47 2.47-.3.3-2.46-2.46-.05.72 2.11 2.11-.3.3-1.84-1.84-.04.62 1.58 1.57-.3.3-1.31-1.31-.05.78.95.95-.3.3-.68-.68-.44 6.42.45 6.46.74-.74.3.3-1.01 1.01.05.78 1.37-1.37.3.3-1.63 1.63.04.62 1.9-1.9.3.3-2.17 2.17.05.72 2.52-2.52.3.3-2.37 2.37.62.04 2.08-2.08.3.3-1.81 1.81.74.05 1.48-1.48.3.3-1.21 1.21.7.05.86-.86.3.3-.6.6.01.01Z"/><path fill="url(#e)" d="M15.966 31.924 31.77 16.12 15.966.316.163 16.12l15.803 15.804Z"/><path fill="url(#f)" d="m15.967.32 15.81 15.81-15.81 15.81-15.8-15.82 15.8-15.8Zm0-.07-.03.03L.127 16.09l-.03.03.03.03 15.81 15.81.03.03.03-.03 15.81-15.81.03-.03-.03-.03L16.007.28l-.03-.03h-.01Z"/><path fill="url(#g)" d="M31.035 16.13 15.967 1.063.899 16.131l15.068 15.068 15.068-15.068Z"/><path fill="url(#h)" d="m7.007 13.77 9.02-9.02 9.02 9.02H7.007Zm.05 4.77 8.97 8.97 8.97-8.97H7.057Z"/><path fill="url(#i)" d="M9.667 15.71s-.05.03-.08.03h-.29s-.06-.01-.08-.03a.114.114 0 0 1-.03-.08v-.21s-.01-.06-.03-.08a.114.114 0 0 0-.08-.03h-.43s-.06.01-.08.03c-.02.02-.03.05-.03.08v1.56s.01.06.03.08c.02.02.05.03.08.03h.34s.06.01.08.03c.02.02.03.05.03.08v.28s-.01.06-.03.08c-.02.02-.05.03-.08.03h-1.45s-.06-.01-.08-.03a.114.114 0 0 1-.03-.08v-.28s.01-.06.03-.08c.02-.02.05-.03.08-.03h.34s.06-.01.08-.03c.02-.02.03-.05.03-.08v-1.56s-.01-.06-.03-.08a.114.114 0 0 0-.08-.03h-.43s-.06.01-.08.03c-.02.02-.03.05-.03.08v.21s-.01.06-.03.08c-.02.02-.05.03-.08.03h-.29s-.06-.01-.08-.03a.114.114 0 0 1-.03-.08v-.71s.01-.06.03-.08c.02-.02.05-.03.08-.03h2.68s.06.01.08.03c.02.02.03.05.03.08v.71s-.01.06-.03.08h-.03Zm4.03 1.77s-.01.06-.03.08c-.02.02-.05.03-.08.03h-.33s-.06-.01-.08-.03a.114.114 0 0 1-.03-.08v-.41c0-.09-.03-.17-.08-.23a.252.252 0 0 0-.2-.09h-1.43s-.05.01-.07.03c-.02.02-.03.05-.03.07v.63s-.01.06-.03.08c-.02.02-.05.03-.08.03h-.33s-.06-.01-.08-.03a.114.114 0 0 1-.03-.08v-2.56s.01-.06.03-.08c.02-.02.05-.03.08-.03h1.72c.11 0 .22.02.33.07.1.04.19.1.27.18.08.07.14.16.18.26.04.1.07.21.07.32v.29c0 .08-.01.16-.04.24a.68.68 0 0 1-.1.21c.12.07.21.17.29.29.07.12.11.26.11.41v.41l-.03-.01Zm-.82-1.85c0-.09-.03-.17-.08-.23a.252.252 0 0 0-.2-.09h-1.27v.83s.01.06.03.08c.02.02.05.03.08.03h1.17c.08 0 .14-.03.2-.09.05-.06.08-.14.08-.23v-.3h-.01Zm4.69 1.85s-.01.06-.03.08c-.02.02-.05.03-.08.03h-.33s-.06-.01-.08-.03a.114.114 0 0 1-.03-.08v-.34s-.01-.06-.03-.08a.114.114 0 0 0-.08-.03h-1.45s-.06.01-.08.03c-.02.02-.03.05-.03.08v.34s-.01.06-.03.08c-.02.02-.05.03-.08.03h-.33s-.06-.01-.08-.03a.114.114 0 0 1-.03-.08v-1.31c0-.2.04-.39.11-.56.07-.17.17-.33.3-.45.13-.13.27-.23.44-.3.17-.07.35-.11.54-.11a1.373 1.373 0 0 1 .98.41c.13.13.23.28.3.45.07.17.11.36.11.56v1.31h-.01Zm-.56-1.3c0-.13-.02-.25-.07-.36a.905.905 0 0 0-.45-.49.725.725 0 0 0-.33-.07c-.12 0-.22.02-.32.07s-.19.11-.26.19c-.08.08-.14.18-.18.29-.04.11-.07.23-.07.36v.24s.01.06.03.08c.02.02.05.03.08.03h1.45s.06-.01.08-.03c.02-.02.03-.05.03-.08v-.23h.01Zm4.19 1.38s-.05.03-.08.03h-2.56s-.06-.01-.08-.03a.114.114 0 0 1-.03-.08v-.28s.01-.06.03-.08c.02-.02.05-.03.08-.03h.89s.06-.01.08-.03c.02-.02.03-.05.03-.08v-1.56s-.01-.06-.03-.08a.114.114 0 0 0-.08-.03h-.89s-.06-.01-.08-.03a.114.114 0 0 1-.03-.08v-.28s.01-.06.03-.08c.02-.02.05-.03.08-.03h2.56s.06.01.08.03c.02.02.03.05.03.08v.28s-.01.06-.03.08c-.02.02-.05.03-.08.03h-.89s-.06.01-.08.03c-.02.02-.03.05-.03.08v1.56s.01.06.03.08c.02.02.05.03.08.03h.89s.06.01.08.03c.02.02.03.05.03.08v.28s-.01.06-.03.08Zm3.91 0s-.05.03-.08.03h-.38s-.06-.01-.08-.04l-1.67-1.92v1.84s-.01.06-.03.08c-.02.02-.05.03-.08.03h-.33s-.06-.01-.08-.03a.114.114 0 0 1-.03-.08v-2.56s.01-.06.03-.08c.02-.02.05-.03.08-.03h.41s.06.01.09.04l1.62 1.88v-1.8s.01-.06.03-.08c.02-.02.05-.03.08-.03h.33s.06.01.08.03c.02.02.03.05.03.08v2.56s-.01.06-.03.08h.01Z"/><path fill="url(#j)" d="M15.967 2.16 2.007 16.12l13.96 13.96 13.96-13.96-13.96-13.96ZM2.297 16.12l13.67-13.67 13.68 13.68-13.68 13.68-13.67-13.69Z"/><path fill="url(#k)" d="m15.967 22.61-1.29.94.45-1.55-1.26-.92 1.58-.07.52-1.45.52 1.45 1.58.07-1.25.92.45 1.55-1.3-.94Z"/><path fill="url(#l)" d="m15.967 19.56.52 1.45 1.58.08-1.26.92.45 1.55-1.3-.94-1.3.94.45-1.55-1.26-.92 1.58-.08.52-1.45m0-.3-.09.26-.5 1.39-1.51.07h-.28l.23.18 1.2.87-.43 1.49-.08.28.24-.17 1.24-.9 1.24.9.24.17-.08-.28-.43-1.49 1.2-.87.23-.17h-.28l-1.51-.09-.5-1.39-.09-.26-.04.01Z"/><path fill="url(#m)" d="m19.337 10.25.33.2-.14.09h-.19v-.29Zm0-1.71v.07l.08.05.19-.11h-.26l-.01-.01Zm0 .83h.68l-.59-.37-.09.06v.31Zm-1.2-.44h.11v-.2l-.11-.07v.27Zm1.78 1.36.14-.08v-.2h-.6l.46.28Zm-1.78-1.74.12.07v-.08h-.12v.01Zm2.92 1.98v-.1h-.17l.17.1Zm-.71-1.88.16.1v-.21h-.16v.11Zm-2.21.64.11-.07v-.21h-.11v.28Zm2.21-.06.16.1v-.27l-.16-.1v.27Zm0 .39v.12h.16v-.07l-.09-.05h-.07Zm-.64-.78.35.22v-.27l-.14-.08-.21.13Zm1.35 1.5v-.1l-.17.1h.17Zm-1.72-.72v.12h.72v-.12h-.72Zm1.01.92h.16v-.11l-.16.1v.01Zm-2.97-1.29h.56l-.56-.35v.35Zm0 1.09h.57l-.57-.35v.35Zm.62.2v-.02l-.03.02h.03Zm-.62-.84.57-.35h-.57v.35Zm0 .84h.4l.17-.11h-.57v.11Zm.62-.29v-.37h-.59l.59.37Zm0-1.09V8.8h-.59l.59.36Zm-.62-.63v.07l.11-.07h-.11Zm.76 1.98.03.02h.06v-.04h-.09v.02Zm0-.13v.03h.09v-.04l-.03-.02-.06.04v-.01Zm0-.96h.03l.07-.04v-.05l-.11.07v.02h.01Zm-.15.37v-.36l-.59.36h.59Zm-.59-1.08h.59v-.17h-.32l-.28.17h.01Zm4.15 1.7h.18l-.18-.12v.12Zm0-.23.18.11v-.3h-.18v.19Zm0-.27h.18v-.3l-.18.11v.19Zm0 .62h.12l.06-.04h-.18v.04Zm-.37-1.73v.07l.11-.07h-.11Zm.37.82.18-.11h-.18v.12-.01Zm-.37-.91h.22l-.22-.15v.15Zm.22-.13v-.04h-.07l.07.04Zm.14.06.16-.1h-.16v.1Zm0 .78h.18l-.18-.12v.12Zm-5.19-7.46-9.82 9.55c.81-.63 2.36-1.53 3.13-1.46.5.05.91.11 1.26.18v-.21l2.06-1.04v-.59h1.48v.56l2.14 1.07v.52h.54V8.16h.15v-.02l.76-.2h.21l.03-1.74h.84l.03 1.74h2.67v.02h.04v2.58h.61c.62 0 1.24.17 1.77.5 1.23.76 2.12.87 2.31.95L16.367 1.96h-.02ZM6.027 12.02l.51-.5c-.28.22-.47.4-.51.5Zm15.53-3.08h.18v-.29l-.18.11v.18Zm0 .27.18.11v-.3h-.18v.19Zm-.37.95v.19h.22v-.14l-.15-.09-.07.04Zm-.38-1.44h.24v-.17h-.24v.17Zm0 .23.19.12.05-.03v-.23h-.24v.14Zm.38 1.6h.22v-.04h-.22v.04Zm-.38-.8.2-.12h-.2v.12Zm.15-.4h-.07l.05.03h.07l-.05-.03Zm-.15.92.24-.15v-.21l-.24.15v.21Zm.54-.52-.17-.1v.15h.1l.07-.04v-.01Zm.06.35v-.08l-.07.04.07.04Zm-.22-.67h.22v-.08h-.22v.08Zm0-.17h.22v-.03l-.22-.14v.17Zm0 .28.22.14v-.16h-.22v.02Zm.07.39h.12l.03-.02-.1-.01-.05.03Zm0-.9.15.09v-.1h-.15v.01Z" opacity=".61"/></g><defs><linearGradient id="b" x1="17.837" x2="14.147" y1="30.08" y2="1.2" gradientUnits="userSpaceOnUse"><stop offset=".08" stop-color="#433013"/><stop offset=".74" stop-color="#A3803A"/><stop offset="1" stop-color="#DAC478"/></linearGradient><linearGradient id="c" x1="11.717" x2="20.037" y1="1.72" y2="29.91" gradientUnits="userSpaceOnUse"><stop stop-color="#433013"/><stop offset=".13" stop-color="#795824"/><stop offset="1" stop-color="#8B6427"/></linearGradient><linearGradient id="d" x1="18.237" x2="12.067" y1="22.17" y2="5.73" gradientUnits="userSpaceOnUse"><stop stop-color="#62471D"/><stop offset=".52" stop-color="#795824"/><stop offset="1" stop-color="#AA8942"/></linearGradient><linearGradient id="e" x1="19.139" x2="12.439" y1="42.395" y2="-13.255" gradientUnits="userSpaceOnUse"><stop offset=".08" stop-color="#433013"/><stop offset=".74" stop-color="#A3803A"/><stop offset="1" stop-color="#DAC478"/></linearGradient><linearGradient id="f" x1="15.967" x2="15.967" y1="32" y2=".25" gradientUnits="userSpaceOnUse"><stop stop-color="#795824"/><stop offset="1" stop-color="#E0B557"/></linearGradient><linearGradient id="g" x1="14.55" x2="16.82" y1="4.886" y2="22.826" gradientUnits="userSpaceOnUse"><stop stop-color="#C0BAA9"/><stop offset="1" stop-color="#E2DCCC"/></linearGradient><linearGradient id="h" x1="16.027" x2="16.027" y1="4.75" y2="27.51" gradientUnits="userSpaceOnUse"><stop stop-color="#035274"/><stop offset=".95" stop-color="#00283D"/></linearGradient><linearGradient id="i" x1="15.967" x2="15.967" y1="8.52" y2="16.75" gradientUnits="userSpaceOnUse"><stop stop-color="#5FC096"/><stop offset=".13" stop-color="#5ABA93"/><stop offset=".3" stop-color="#4CA98E"/><stop offset=".5" stop-color="#368D84"/><stop offset=".71" stop-color="#176778"/><stop offset=".85" stop-color="#004A6E"/><stop offset=".99" stop-color="#003249"/></linearGradient><linearGradient id="j" x1="18.767" x2="12.847" y1="39.33" y2="-9.82" gradientUnits="userSpaceOnUse"><stop offset=".08" stop-color="#433013"/><stop offset=".74" stop-color="#A3803A"/><stop offset="1" stop-color="#DAC478"/></linearGradient><linearGradient id="k" x1="16.797" x2="15.927" y1="27.32" y2="20.73" gradientUnits="userSpaceOnUse"><stop offset=".01" stop-color="#241F12"/><stop offset=".05" stop-color="#41361F"/><stop offset=".09" stop-color="#574828"/><stop offset=".13" stop-color="#66552F"/><stop offset=".18" stop-color="#705C33"/><stop offset=".25" stop-color="#735F35"/><stop offset=".74" stop-color="#A0895A"/><stop offset=".81" stop-color="#B5A06F"/><stop offset=".97" stop-color="#EBDDA7"/><stop offset="1" stop-color="#F7EAB3"/></linearGradient><linearGradient id="l" x1="17.287" x2="14.957" y1="23.89" y2="19.85" gradientUnits="userSpaceOnUse"><stop offset=".01" stop-color="#241F12"/><stop offset=".05" stop-color="#41361F"/><stop offset=".09" stop-color="#574828"/><stop offset=".13" stop-color="#66552F"/><stop offset=".18" stop-color="#705C33"/><stop offset=".25" stop-color="#735F35"/><stop offset=".74" stop-color="#A0895A"/><stop offset=".81" stop-color="#B5A06F"/><stop offset=".97" stop-color="#EBDDA7"/><stop offset="1" stop-color="#F7EAB3"/></linearGradient><radialGradient id="m" cx="0" cy="0" r="1" gradientTransform="matrix(13 1 -1 13 13.905 6.754)" gradientUnits="userSpaceOnUse"><stop stop-color="#fff"/><stop offset=".31" stop-color="#fff" stop-opacity=".66"/><stop offset=".65" stop-color="#fff" stop-opacity=".31"/><stop offset=".89" stop-color="#fff" stop-opacity=".09"/><stop offset="1" stop-color="#fff" stop-opacity="0"/></radialGradient><clipPath id="a"><path fill="#fff" d="M.097.25h31.75V32H.097z"/></clipPath></defs></svg>